<svg width="463" height="67" viewBox="0 0 463 67" fill="none" xmlns="http://www.w3.org/2000/svg">
<path d="M27.6944 53.36C23.161 53.36 19.217 52.5893 15.8624 51.048C12.5077 49.4613 9.71969 47.3987 7.49836 44.86C5.27703 42.276 3.62236 39.488 2.53436 36.496C1.44636 33.504 0.90236 30.6027 0.90236 27.792V26.296C0.90236 23.168 1.46903 20.108 2.60236 17.116C3.73569 14.0787 5.43569 11.336 7.70236 8.888C9.96903 6.44 12.757 4.49066 16.0664 3.04C19.421 1.58933 23.297 0.863998 27.6944 0.863998C32.0464 0.863998 35.877 1.58933 39.1864 3.04C42.541 4.49066 45.3517 6.44 47.6184 8.888C49.885 11.336 51.585 14.0787 52.7184 17.116C53.897 20.108 54.4864 23.168 54.4864 26.296V27.792C54.4864 30.6027 53.9197 33.504 52.7864 36.496C51.6984 39.488 50.0437 42.276 47.8224 44.86C45.601 47.3987 42.813 49.4613 39.4584 51.048C36.1037 52.5893 32.1824 53.36 27.6944 53.36ZM27.6944 41.528C29.8704 41.528 31.8197 41.1653 33.5424 40.44C35.265 39.7147 36.7384 38.6947 37.9624 37.38C39.1864 36.0653 40.1157 34.5467 40.7504 32.824C41.385 31.056 41.7024 29.152 41.7024 27.112C41.7024 24.936 41.3624 22.964 40.6824 21.196C40.0477 19.428 39.1184 17.9093 37.8944 16.64C36.6704 15.3707 35.197 14.396 33.4744 13.716C31.7517 13.036 29.825 12.696 27.6944 12.696C25.5184 12.696 23.569 13.036 21.8464 13.716C20.1237 14.396 18.6504 15.3707 17.4264 16.64C16.2024 17.9093 15.273 19.428 14.6384 21.196C14.0037 22.964 13.6864 24.936 13.6864 27.112C13.6864 29.152 14.0037 31.056 14.6384 32.824C15.273 34.5467 16.2024 36.0653 17.4264 37.38C18.6504 38.6947 20.1237 39.7147 21.8464 40.44C23.569 41.1653 25.5184 41.528 27.6944 41.528ZM61.5759 52V14.464H71.3679V30.784H71.2319C71.2319 25.5253 72.3199 21.4 74.4959 18.408C76.7172 15.416 79.8906 13.92 84.0159 13.92H85.5119V24.528H82.6559C79.8906 24.528 77.7372 25.276 76.1959 26.772C74.6999 28.268 73.9519 30.4213 73.9519 33.232V52H61.5759ZM105.699 53.224C103.07 53.224 100.667 52.748 98.4914 51.796C96.3607 50.844 94.5021 49.5293 92.9154 47.852C91.3741 46.1293 90.1727 44.112 89.3114 41.8C88.4954 39.488 88.0874 36.972 88.0874 34.252V32.62C88.0874 29.9 88.4727 27.384 89.2434 25.072C90.0594 22.7147 91.2154 20.6747 92.7114 18.952C94.2074 17.184 96.0207 15.824 98.1514 14.872C100.282 13.8747 102.662 13.376 105.291 13.376C108.329 13.376 110.913 14.056 113.043 15.416C115.219 16.7307 116.874 18.6573 118.007 21.196C119.186 23.7347 119.821 26.8173 119.911 30.444L117.055 28.336V2.36H129.431V52H119.639V36.768H120.999C120.909 40.1227 120.229 43.0467 118.959 45.54C117.69 47.988 115.922 49.892 113.655 51.252C111.434 52.5667 108.782 53.224 105.699 53.224ZM109.031 43.024C110.527 43.024 111.887 42.684 113.111 42.004C114.381 41.324 115.401 40.3267 116.171 39.012C116.942 37.6973 117.327 36.1107 117.327 34.252V31.94C117.327 30.1267 116.919 28.608 116.103 27.384C115.333 26.16 114.313 25.2307 113.043 24.596C111.819 23.916 110.482 23.576 109.031 23.576C107.399 23.576 105.926 24.0067 104.611 24.868C103.342 25.684 102.322 26.84 101.551 28.336C100.826 29.7867 100.463 31.4867 100.463 33.436C100.463 35.3853 100.826 37.0853 101.551 38.536C102.322 39.9413 103.342 41.052 104.611 41.868C105.926 42.6387 107.399 43.024 109.031 43.024ZM156.02 53.36C152.847 53.36 150.036 52.816 147.588 51.728C145.14 50.64 143.077 49.1667 141.4 47.308C139.723 45.4493 138.431 43.364 137.524 41.052C136.663 38.74 136.232 36.36 136.232 33.912V32.552C136.232 30.0133 136.663 27.588 137.524 25.276C138.431 22.9187 139.7 20.8333 141.332 19.02C143.009 17.2067 145.049 15.7787 147.452 14.736C149.855 13.648 152.575 13.104 155.612 13.104C159.647 13.104 163.069 14.0107 165.88 15.824C168.691 17.6373 170.844 20.04 172.34 23.032C173.836 25.9787 174.584 29.1973 174.584 32.688V36.632H141.4V29.968H167.444L163.16 32.96C163.16 30.8293 162.865 29.0387 162.276 27.588C161.732 26.092 160.893 24.9587 159.76 24.188C158.672 23.4173 157.289 23.032 155.612 23.032C153.98 23.032 152.552 23.4173 151.328 24.188C150.149 24.9133 149.243 26.0467 148.608 27.588C147.973 29.084 147.656 30.988 147.656 33.3C147.656 35.3853 147.951 37.1987 148.54 38.74C149.129 40.236 150.036 41.392 151.26 42.208C152.484 43.024 154.071 43.432 156.02 43.432C157.743 43.432 159.148 43.1373 160.236 42.548C161.369 41.9587 162.163 41.1653 162.616 40.168H173.904C173.36 42.7067 172.272 44.9733 170.64 46.968C169.053 48.9627 167.013 50.5267 164.52 51.66C162.072 52.7933 159.239 53.36 156.02 53.36ZM181.107 52V14.464H190.899V30.784H190.763C190.763 25.5253 191.851 21.4 194.027 18.408C196.248 15.416 199.422 13.92 203.547 13.92H205.043V24.528H202.187C199.422 24.528 197.268 25.276 195.727 26.772C194.231 28.268 193.483 30.4213 193.483 33.232V52H181.107Z" fill="white"/>
<path d="M228.151 53.36C223.527 53.36 219.629 52.6347 216.455 51.184C213.327 49.7333 210.947 47.7613 209.315 45.268C207.729 42.7293 206.935 39.828 206.935 36.564H219.175C219.175 37.7427 219.493 38.8307 220.127 39.828C220.807 40.78 221.805 41.528 223.119 42.072C224.434 42.616 226.111 42.888 228.151 42.888C229.919 42.888 231.415 42.6613 232.639 42.208C233.909 41.7547 234.861 41.12 235.495 40.304C236.175 39.488 236.515 38.5133 236.515 37.38C236.515 35.9293 235.903 34.8187 234.679 34.048C233.455 33.232 231.393 32.7107 228.491 32.484L225.295 32.212C220.173 31.7587 216.093 30.1493 213.055 27.384C210.018 24.6187 208.499 20.9467 208.499 16.368C208.499 13.104 209.247 10.316 210.743 8.004C212.285 5.692 214.438 3.924 217.203 2.7C219.969 1.476 223.233 0.863998 226.995 0.863998C231.075 0.863998 234.521 1.544 237.331 2.904C240.187 4.264 242.363 6.19066 243.859 8.684C245.355 11.132 246.103 13.988 246.103 17.252H233.863C233.863 16.164 233.591 15.1667 233.047 14.26C232.503 13.3533 231.71 12.6507 230.667 12.152C229.67 11.608 228.446 11.336 226.995 11.336C225.635 11.336 224.479 11.5627 223.527 12.016C222.621 12.424 221.918 13.0133 221.419 13.784C220.966 14.5547 220.739 15.416 220.739 16.368C220.739 17.6373 221.17 18.7253 222.031 19.632C222.893 20.5387 224.389 21.0827 226.519 21.264L229.715 21.536C233.433 21.8533 236.719 22.6693 239.575 23.984C242.431 25.2533 244.675 26.9987 246.307 29.22C247.939 31.4413 248.755 34.1613 248.755 37.38C248.755 40.5987 247.917 43.4093 246.239 45.812C244.607 48.2147 242.25 50.0733 239.167 51.388C236.13 52.7027 232.458 53.36 228.151 53.36ZM255.024 66.96V56.624H263.66C264.702 56.624 265.586 56.488 266.312 56.216C267.037 55.944 267.626 55.4907 268.08 54.856C268.533 54.2667 268.873 53.428 269.1 52.34L277.532 14.464H289.228L279.368 54.72C278.642 57.8027 277.622 60.228 276.308 61.996C275.038 63.8093 273.27 65.0787 271.004 65.804C268.782 66.5747 265.881 66.96 262.3 66.96H255.024ZM266.924 51.184V41.664H274.812V51.184H266.924ZM261.212 51.184L250.264 14.464H262.64L272.908 51.184H261.212ZM308.491 53.224C303.051 53.224 298.767 52.1133 295.639 49.892C292.511 47.6253 290.834 44.452 290.607 40.372H301.487C301.669 41.5053 302.371 42.48 303.595 43.296C304.819 44.112 306.542 44.52 308.763 44.52C310.35 44.52 311.71 44.2933 312.843 43.84C314.022 43.3413 314.611 42.548 314.611 41.46C314.611 40.508 314.158 39.7373 313.251 39.148C312.345 38.5133 310.69 38.0827 308.287 37.856L305.703 37.584C300.898 37.0853 297.362 35.7707 295.095 33.64C292.829 31.5093 291.695 28.8347 291.695 25.616C291.695 22.8507 292.375 20.584 293.735 18.816C295.095 17.0027 296.977 15.6427 299.379 14.736C301.782 13.8293 304.525 13.376 307.607 13.376C312.639 13.376 316.697 14.4867 319.779 16.708C322.862 18.884 324.494 22.0347 324.675 26.16H313.795C313.614 25.0267 313.002 24.0747 311.959 23.304C310.917 22.488 309.421 22.08 307.471 22.08C306.066 22.08 304.91 22.3293 304.003 22.828C303.142 23.3267 302.711 24.0293 302.711 24.936C302.711 25.888 303.119 26.5907 303.935 27.044C304.797 27.4973 306.157 27.8373 308.015 28.064L310.599 28.336C315.405 28.8347 319.099 30.172 321.683 32.348C324.313 34.4787 325.627 37.2893 325.627 40.78C325.627 43.364 324.925 45.5853 323.519 47.444C322.159 49.3027 320.187 50.7307 317.603 51.728C315.065 52.7253 312.027 53.224 308.491 53.224ZM349.667 52.544C345.587 52.544 342.323 52.0453 339.875 51.048C337.472 50.0507 335.727 48.396 334.639 46.084C333.551 43.772 333.007 40.644 333.007 36.7L333.075 4.672H344.499L344.431 37.04C344.431 38.7173 344.862 40.0093 345.723 40.916C346.63 41.7773 347.922 42.208 349.599 42.208H354.767V52.544H349.667ZM327.567 23.44V14.464H354.767V23.44H327.567ZM378.879 53.36C375.706 53.36 372.895 52.816 370.447 51.728C367.999 50.64 365.937 49.1667 364.259 47.308C362.582 45.4493 361.29 43.364 360.383 41.052C359.522 38.74 359.091 36.36 359.091 33.912V32.552C359.091 30.0133 359.522 27.588 360.383 25.276C361.29 22.9187 362.559 20.8333 364.191 19.02C365.869 17.2067 367.909 15.7787 370.311 14.736C372.714 13.648 375.434 13.104 378.471 13.104C382.506 13.104 385.929 14.0107 388.739 15.824C391.55 17.6373 393.703 20.04 395.199 23.032C396.695 25.9787 397.443 29.1973 397.443 32.688V36.632H364.259V29.968H390.303L386.019 32.96C386.019 30.8293 385.725 29.0387 385.135 27.588C384.591 26.092 383.753 24.9587 382.619 24.188C381.531 23.4173 380.149 23.032 378.471 23.032C376.839 23.032 375.411 23.4173 374.187 24.188C373.009 24.9133 372.102 26.0467 371.467 27.588C370.833 29.084 370.515 30.988 370.515 33.3C370.515 35.3853 370.81 37.1987 371.399 38.74C371.989 40.236 372.895 41.392 374.119 42.208C375.343 43.024 376.93 43.432 378.879 43.432C380.602 43.432 382.007 43.1373 383.095 42.548C384.229 41.9587 385.022 41.1653 385.475 40.168H396.763C396.219 42.7067 395.131 44.9733 393.499 46.968C391.913 48.9627 389.873 50.5267 387.379 51.66C384.931 52.7933 382.098 53.36 378.879 53.36ZM403.967 52V14.464H413.759V30.648H413.215C413.215 26.7493 413.691 23.5307 414.643 20.992C415.64 18.408 417.091 16.4813 418.995 15.212C420.899 13.8973 423.233 13.24 425.999 13.24H426.543C429.353 13.24 431.688 13.8973 433.547 15.212C435.451 16.4813 436.879 18.408 437.831 20.992C438.828 23.5307 439.327 26.7493 439.327 30.648H436.471C436.471 26.7493 436.947 23.5307 437.899 20.992C438.896 18.408 440.347 16.4813 442.251 15.212C444.155 13.8973 446.489 13.24 449.255 13.24H449.799C452.609 13.24 454.967 13.8973 456.871 15.212C458.82 16.4813 460.293 18.408 461.291 20.992C462.333 23.5307 462.855 26.7493 462.855 30.648V52H450.479V30.308C450.479 28.5853 450.003 27.1573 449.051 26.024C448.144 24.8453 446.829 24.256 445.107 24.256C443.384 24.256 442.024 24.8453 441.027 26.024C440.075 27.1573 439.599 28.6307 439.599 30.444V52H427.223V30.308C427.223 28.5853 426.747 27.1573 425.795 26.024C424.888 24.8453 423.573 24.256 421.851 24.256C420.128 24.256 418.768 24.8453 417.771 26.024C416.819 27.1573 416.343 28.6307 416.343 30.444V52H403.967Z" fill="#FF3F4B"/>
</svg>
